<mxfile host="app.diagrams.net" modified="2021-03-19T11:44:37.016Z" agent="5.0 (Macintosh; Intel Mac OS X 10_15_6) AppleWebKit/605.1.15 (KHTML, like Gecko) Version/14.0.3 Safari/605.1.15" etag="2kU672upkZJ1D_h7QgSH" version="14.4.9" type="github">
  <diagram id="rxXLXbwePzpE2vl2YqY4" name="Page-1">
    <mxGraphModel dx="1747" dy="800" grid="1" gridSize="10" guides="1" tooltips="1" connect="1" arrows="1" fold="1" page="1" pageScale="1" pageWidth="827" pageHeight="1169" math="0" shadow="0">
      <root>
        <mxCell id="0" />
        <mxCell id="1" parent="0" />
        <mxCell id="pWY_z9XHGH6Cy8BozgTq-50" value="" style="ellipse;whiteSpace=wrap;html=1;dashed=1;dashPattern=1 1;" vertex="1" parent="1">
          <mxGeometry x="-240" y="430" width="470" height="280" as="geometry" />
        </mxCell>
        <mxCell id="pWY_z9XHGH6Cy8BozgTq-46" value="" style="html=1;shadow=0;dashed=0;align=center;verticalAlign=middle;shape=mxgraph.arrows2.arrow;dy=0;dx=43;notch=26;" vertex="1" parent="1">
          <mxGeometry x="10" y="600" width="190" height="60" as="geometry" />
        </mxCell>
        <mxCell id="pWY_z9XHGH6Cy8BozgTq-45" style="edgeStyle=orthogonalEdgeStyle;rounded=0;orthogonalLoop=1;jettySize=auto;html=1;exitX=0;exitY=0;exitDx=120;exitDy=40;exitPerimeter=0;entryX=0.688;entryY=1.5;entryDx=0;entryDy=0;entryPerimeter=0;dashed=1;dashPattern=1 1;endArrow=blockThin;endFill=1;fontSize=12;" edge="1" parent="1" source="pWY_z9XHGH6Cy8BozgTq-44" target="pWY_z9XHGH6Cy8BozgTq-36">
          <mxGeometry relative="1" as="geometry" />
        </mxCell>
        <mxCell id="pWY_z9XHGH6Cy8BozgTq-52" style="edgeStyle=orthogonalEdgeStyle;rounded=0;orthogonalLoop=1;jettySize=auto;html=1;endArrow=blockThin;endFill=1;fontSize=12;entryX=0.325;entryY=1;entryDx=0;entryDy=0;entryPerimeter=0;" edge="1" parent="1" source="pWY_z9XHGH6Cy8BozgTq-44" target="pWY_z9XHGH6Cy8BozgTq-6">
          <mxGeometry relative="1" as="geometry">
            <mxPoint x="480" y="510" as="targetPoint" />
            <Array as="points">
              <mxPoint x="480" y="540" />
            </Array>
          </mxGeometry>
        </mxCell>
        <mxCell id="pWY_z9XHGH6Cy8BozgTq-44" value="" style="html=1;shadow=0;dashed=0;align=center;verticalAlign=middle;shape=mxgraph.arrows2.arrow;dy=0;dx=28;notch=18;" vertex="1" parent="1">
          <mxGeometry x="20" y="520" width="150" height="40" as="geometry" />
        </mxCell>
        <mxCell id="pWY_z9XHGH6Cy8BozgTq-41" value="" style="shape=step;perimeter=stepPerimeter;whiteSpace=wrap;html=1;fixedSize=1;" vertex="1" parent="1">
          <mxGeometry x="-230" y="565" width="230" height="40" as="geometry" />
        </mxCell>
        <mxCell id="pWY_z9XHGH6Cy8BozgTq-39" value="" style="ellipse;whiteSpace=wrap;html=1;fontSize=12;align=left;dashed=1;dashPattern=1 1;" vertex="1" parent="1">
          <mxGeometry y="120" width="450" height="300" as="geometry" />
        </mxCell>
        <mxCell id="pWY_z9XHGH6Cy8BozgTq-1" value="MVC Design Pattern" style="rounded=0;whiteSpace=wrap;html=1;fontSize=18;" vertex="1" parent="1">
          <mxGeometry x="180" y="40" width="120" height="60" as="geometry" />
        </mxCell>
        <mxCell id="pWY_z9XHGH6Cy8BozgTq-2" value="&lt;font style=&quot;font-size: 18px&quot;&gt;Model&lt;/font&gt;&lt;br&gt;JuiceMaker&lt;br&gt;FruitStorage" style="ellipse;whiteSpace=wrap;html=1;" vertex="1" parent="1">
          <mxGeometry x="180" y="220" width="120" height="60" as="geometry" />
        </mxCell>
        <mxCell id="pWY_z9XHGH6Cy8BozgTq-4" value="View Controller" style="ellipse;whiteSpace=wrap;html=1;fontSize=18;" vertex="1" parent="1">
          <mxGeometry x="-80" y="440" width="120" height="60" as="geometry" />
        </mxCell>
        <mxCell id="pWY_z9XHGH6Cy8BozgTq-6" value="View" style="ellipse;whiteSpace=wrap;html=1;fontSize=18;" vertex="1" parent="1">
          <mxGeometry x="440" y="440" width="120" height="60" as="geometry" />
        </mxCell>
        <mxCell id="pWY_z9XHGH6Cy8BozgTq-12" value="enum Fruit" style="text;html=1;strokeColor=none;fillColor=none;align=center;verticalAlign=middle;whiteSpace=wrap;rounded=0;fontSize=12;" vertex="1" parent="1">
          <mxGeometry x="70" y="190" width="110" height="20" as="geometry" />
        </mxCell>
        <mxCell id="pWY_z9XHGH6Cy8BozgTq-13" value="enum Juice" style="text;html=1;strokeColor=none;fillColor=none;align=center;verticalAlign=middle;whiteSpace=wrap;rounded=0;fontSize=12;" vertex="1" parent="1">
          <mxGeometry x="300" y="190" width="110" height="20" as="geometry" />
        </mxCell>
        <mxCell id="pWY_z9XHGH6Cy8BozgTq-16" value="class JuiceMaker&lt;br&gt;- grindFruit()&lt;br&gt;- makeJuice()" style="text;html=1;strokeColor=none;fillColor=none;align=left;verticalAlign=middle;whiteSpace=wrap;rounded=0;fontSize=12;" vertex="1" parent="1">
          <mxGeometry x="350" y="270" width="105" height="20" as="geometry" />
        </mxCell>
        <mxCell id="pWY_z9XHGH6Cy8BozgTq-18" value="class FruitStorage&lt;br&gt;- manageFruit()&lt;br&gt;- hasEnoughFruit()" style="text;html=1;strokeColor=none;fillColor=none;align=left;verticalAlign=middle;whiteSpace=wrap;rounded=0;fontSize=12;" vertex="1" parent="1">
          <mxGeometry x="10" y="280" width="130" height="20" as="geometry" />
        </mxCell>
        <mxCell id="pWY_z9XHGH6Cy8BozgTq-23" value="" style="curved=1;endArrow=classic;html=1;fontSize=12;dashed=1;" edge="1" parent="1">
          <mxGeometry width="50" height="50" relative="1" as="geometry">
            <mxPoint x="400" y="320" as="sourcePoint" />
            <mxPoint x="70" y="330" as="targetPoint" />
            <Array as="points">
              <mxPoint x="400" y="380" />
              <mxPoint x="50" y="380" />
            </Array>
          </mxGeometry>
        </mxCell>
        <mxCell id="pWY_z9XHGH6Cy8BozgTq-24" value="" style="endArrow=classic;html=1;fontSize=12;exitX=1;exitY=0.5;exitDx=0;exitDy=0;entryX=0;entryY=1;entryDx=0;entryDy=0;" edge="1" parent="1" source="pWY_z9XHGH6Cy8BozgTq-4" target="pWY_z9XHGH6Cy8BozgTq-2">
          <mxGeometry width="50" height="50" relative="1" as="geometry">
            <mxPoint x="320" y="430" as="sourcePoint" />
            <mxPoint x="370" y="380" as="targetPoint" />
          </mxGeometry>
        </mxCell>
        <mxCell id="pWY_z9XHGH6Cy8BozgTq-25" value="" style="endArrow=classic;html=1;fontSize=12;exitX=0;exitY=0.5;exitDx=0;exitDy=0;entryX=1;entryY=0;entryDx=0;entryDy=0;spacing=2;" edge="1" parent="1" source="pWY_z9XHGH6Cy8BozgTq-2" target="pWY_z9XHGH6Cy8BozgTq-4">
          <mxGeometry width="50" height="50" relative="1" as="geometry">
            <mxPoint x="320" y="430" as="sourcePoint" />
            <mxPoint x="370" y="380" as="targetPoint" />
          </mxGeometry>
        </mxCell>
        <mxCell id="pWY_z9XHGH6Cy8BozgTq-26" value="" style="endArrow=classic;html=1;fontSize=12;exitX=0;exitY=0.5;exitDx=0;exitDy=0;entryX=1;entryY=1;entryDx=0;entryDy=0;" edge="1" parent="1" source="pWY_z9XHGH6Cy8BozgTq-6" target="pWY_z9XHGH6Cy8BozgTq-2">
          <mxGeometry width="50" height="50" relative="1" as="geometry">
            <mxPoint x="320" y="430" as="sourcePoint" />
            <mxPoint x="370" y="380" as="targetPoint" />
          </mxGeometry>
        </mxCell>
        <mxCell id="pWY_z9XHGH6Cy8BozgTq-27" value="" style="endArrow=classic;html=1;fontSize=12;exitX=1;exitY=0.5;exitDx=0;exitDy=0;entryX=0;entryY=0;entryDx=0;entryDy=0;" edge="1" parent="1" source="pWY_z9XHGH6Cy8BozgTq-2" target="pWY_z9XHGH6Cy8BozgTq-6">
          <mxGeometry width="50" height="50" relative="1" as="geometry">
            <mxPoint x="320" y="430" as="sourcePoint" />
            <mxPoint x="370" y="380" as="targetPoint" />
          </mxGeometry>
        </mxCell>
        <mxCell id="pWY_z9XHGH6Cy8BozgTq-28" value="" style="curved=1;endArrow=classic;html=1;fontSize=12;dashed=1;" edge="1" parent="1">
          <mxGeometry width="50" height="50" relative="1" as="geometry">
            <mxPoint x="70" y="250" as="sourcePoint" />
            <mxPoint x="130" y="180" as="targetPoint" />
            <Array as="points">
              <mxPoint x="50" y="180" />
              <mxPoint x="130" y="160" />
            </Array>
          </mxGeometry>
        </mxCell>
        <mxCell id="pWY_z9XHGH6Cy8BozgTq-29" value="" style="curved=1;endArrow=classic;html=1;fontSize=12;exitX=1;exitY=0.5;exitDx=0;exitDy=0;entryX=0;entryY=0.5;entryDx=0;entryDy=0;dashed=1;" edge="1" parent="1" source="pWY_z9XHGH6Cy8BozgTq-12" target="pWY_z9XHGH6Cy8BozgTq-13">
          <mxGeometry width="50" height="50" relative="1" as="geometry">
            <mxPoint x="320" y="430" as="sourcePoint" />
            <mxPoint x="370" y="380" as="targetPoint" />
            <Array as="points">
              <mxPoint x="220" y="200" />
            </Array>
          </mxGeometry>
        </mxCell>
        <mxCell id="pWY_z9XHGH6Cy8BozgTq-54" style="edgeStyle=orthogonalEdgeStyle;rounded=0;orthogonalLoop=1;jettySize=auto;html=1;entryX=0.5;entryY=1;entryDx=0;entryDy=0;endArrow=blockThin;endFill=1;fontSize=12;" edge="1" parent="1" target="pWY_z9XHGH6Cy8BozgTq-6">
          <mxGeometry relative="1" as="geometry">
            <mxPoint y="585" as="sourcePoint" />
          </mxGeometry>
        </mxCell>
        <mxCell id="pWY_z9XHGH6Cy8BozgTq-32" value="@IBOutlet fruitStockLable&lt;br&gt;@IBAction touchUpMakeJuiceButton&lt;br&gt;@IBAction didTouchCurrentVC" style="text;html=1;strokeColor=none;fillColor=none;align=left;verticalAlign=middle;whiteSpace=wrap;rounded=0;fontSize=12;" vertex="1" parent="1">
          <mxGeometry x="-210" y="575" width="200" height="20" as="geometry" />
        </mxCell>
        <mxCell id="pWY_z9XHGH6Cy8BozgTq-53" style="edgeStyle=orthogonalEdgeStyle;rounded=0;orthogonalLoop=1;jettySize=auto;html=1;entryX=0.658;entryY=1.017;entryDx=0;entryDy=0;entryPerimeter=0;endArrow=blockThin;endFill=1;fontSize=12;" edge="1" parent="1" source="pWY_z9XHGH6Cy8BozgTq-34" target="pWY_z9XHGH6Cy8BozgTq-6">
          <mxGeometry relative="1" as="geometry" />
        </mxCell>
        <mxCell id="pWY_z9XHGH6Cy8BozgTq-34" value="notEnoughFruitAlert()&lt;br&gt;let alert&lt;br&gt;let noAction&lt;br&gt;let yesAction" style="text;html=1;strokeColor=none;fillColor=none;align=left;verticalAlign=middle;whiteSpace=wrap;rounded=0;fontSize=12;" vertex="1" parent="1">
          <mxGeometry x="40" y="620" width="160" height="20" as="geometry" />
        </mxCell>
        <mxCell id="pWY_z9XHGH6Cy8BozgTq-36" value="juiceIsReadyAlert()&lt;br&gt;let alert&lt;br&gt;let okAction" style="text;html=1;strokeColor=none;fillColor=none;align=left;verticalAlign=middle;whiteSpace=wrap;rounded=0;fontSize=12;shadow=0;" vertex="1" parent="1">
          <mxGeometry x="40" y="530" width="110" height="20" as="geometry" />
        </mxCell>
      </root>
    </mxGraphModel>
  </diagram>
</mxfile>
